<?xml version="1.0" encoding="UTF-8" standalone="no"?>
<!DOCTYPE svg PUBLIC "-//W3C//DTD SVG 1.1//EN" "http://www.w3.org/Graphics/SVG/1.1/DTD/svg11.dtd">
<svg width="100%" height="100%" viewBox="0 0 1423 200" version="1.1" xmlns="http://www.w3.org/2000/svg" xmlns:xlink="http://www.w3.org/1999/xlink" xml:space="preserve" xmlns:serif="http://www.serif.com/" style="fill-rule:evenodd;clip-rule:evenodd;stroke-linejoin:round;stroke-miterlimit:2;">
    <g id="g2" transform="matrix(0.609596,0,0,0.609201,126.775,594.285)">
        <g id="text2">
        </g>
        <g transform="matrix(0.994114,0.108409,-0.108268,0.994114,-86.0548,-18.2326)">
            <g transform="matrix(0.961063,0,0,0.957262,-549.529,-1128.2)">
                <path d="M534.169,282.205C512.793,266.139 486.94,260.118 462.315,263.385C437.719,266.648 414.349,279.201 397.903,300.285C381.473,321.347 374.997,347.075 377.822,371.753C380.646,396.424 392.776,420.026 413.558,436.846C434.331,453.658 459.939,460.599 484.656,458.219C506.594,456.107 527.833,446.625 544.356,430.162L528.183,412.978C520.354,420.586 511.033,426.27 500.959,429.772C487.256,434.536 472.179,435.287 457.578,431.381C442.974,427.476 430.282,419.3 420.789,408.335C411.296,397.372 405.02,383.643 403.245,368.634C401.469,353.621 404.364,338.814 411.029,325.953C417.711,313.06 428.147,302.141 441.432,294.939C454.712,287.739 469.546,284.954 483.982,286.389C498.384,287.82 512.372,293.48 523.999,303.173L524.585,303.682L625.043,401.323L611.117,415.639L510.825,318.16C502.428,311.302 492.377,307.29 482.026,306.261C471.533,305.218 460.711,307.265 450.978,312.542C441.249,317.815 433.634,325.759 428.79,335.107C423.928,344.487 421.818,355.304 423.117,366.288C424.417,377.276 428.986,387.297 435.889,395.27C442.793,403.245 452.056,409.199 462.741,412.057C473.43,414.915 484.427,414.379 494.387,410.918C504.376,407.445 513.341,401.051 519.93,392.208L527.063,382.635L535.226,391.308L565.269,423.229L571.36,429.701L565.66,436.491C544.97,461.136 516.296,475.225 486.534,478.091C456.805,480.955 425.987,472.59 400.962,452.337C375.945,432.089 361.345,403.695 357.949,374.023C354.554,344.359 362.368,313.396 382.177,288.002C401.968,262.629 430.108,247.522 459.733,243.591C489.33,239.664 520.417,246.913 546.14,266.245L534.169,282.205Z" style="fill:rgb(37,176,255);"/>
            </g>
            <g transform="matrix(0.961063,0,0,0.957262,-566.583,-1153.92)">
                <path d="M667.03,438.994C688.406,455.06 714.259,461.082 738.884,457.814C763.48,454.55 786.85,441.999 803.296,420.915C819.726,399.852 826.202,374.124 823.377,349.445C820.553,324.775 808.423,301.173 787.641,284.353C766.868,267.541 741.26,260.6 716.543,262.98C694.605,265.092 673.367,274.575 656.843,291.037L673.016,308.221C680.845,300.613 690.167,294.929 700.241,291.427C713.943,286.664 729.021,285.913 743.622,289.817C758.226,293.723 770.918,301.899 780.41,312.863C789.903,323.828 796.179,337.556 797.955,352.565C799.73,367.579 796.835,382.385 790.169,395.246C783.488,408.139 773.052,419.058 759.767,426.26C746.487,433.46 731.653,436.246 717.217,434.81C702.815,433.378 688.827,427.719 677.201,418.026L676.614,417.517L576.156,319.877L590.083,305.56L690.375,403.039C698.771,409.897 708.822,413.91 719.173,414.938C729.666,415.981 740.488,413.934 750.222,408.658C759.951,403.383 767.565,395.44 772.41,386.092C777.271,376.712 779.381,365.896 778.082,354.912C776.783,343.923 772.213,333.902 765.31,325.929C758.406,317.954 749.143,312 738.459,309.142C727.769,306.284 716.772,306.82 706.812,310.282C696.824,313.754 687.859,320.147 681.269,328.992L674.136,338.564L665.973,329.891L635.93,297.97L629.839,291.498L635.54,284.709C656.23,260.063 684.903,245.974 714.666,243.107C744.394,240.245 775.212,248.608 800.238,268.862C825.253,289.109 839.854,317.504 843.251,347.176C846.645,376.84 838.832,407.804 819.022,433.198C799.231,458.57 771.091,473.677 741.465,477.608C711.869,481.535 680.782,474.287 655.059,454.955L667.03,438.994Z" style="fill:rgb(24,231,207);"/>
            </g>
        </g>
        <g id="text56" transform="matrix(0.968343,0,0,1.03269,0,0)">
            <path d="M386.797,-711.596L334.221,-711.596L334.221,-866.748L387.857,-866.748C403.261,-866.748 416.494,-863.642 427.554,-857.429C438.665,-851.268 447.201,-842.404 453.16,-830.839C459.12,-819.273 462.1,-805.435 462.1,-789.324C462.1,-773.162 459.095,-759.273 453.084,-747.657C447.125,-736.041 438.514,-727.127 427.251,-720.915C416.039,-714.702 402.554,-711.596 386.797,-711.596ZM362.327,-735.915L385.433,-735.915C417.958,-735.915 434.221,-753.718 434.221,-789.324C434.221,-824.728 418.236,-842.43 386.266,-842.43L362.327,-842.43L362.327,-735.915ZM488.766,-711.596L488.766,-866.748L589.675,-866.748L589.675,-843.187L516.872,-843.187L516.872,-801.066L584.448,-801.066L584.448,-777.505L516.872,-777.505L516.872,-735.157L590.281,-735.157L590.281,-711.596L488.766,-711.596ZM639.144,-866.748L679.523,-744.627L681.114,-744.627L721.417,-866.748L752.326,-866.748L697.629,-711.596L662.932,-711.596L608.311,-866.748L639.144,-866.748ZM903.159,-789.172C903.159,-772.455 900.027,-758.137 893.765,-746.218C887.553,-734.349 879.068,-725.258 868.31,-718.945C857.603,-712.632 845.457,-709.475 831.871,-709.475C818.285,-709.475 806.113,-712.632 795.356,-718.945C784.598,-725.308 776.114,-734.425 769.901,-746.293C763.689,-758.212 760.583,-772.505 760.583,-789.172C760.583,-805.889 763.689,-820.182 769.901,-832.051C776.114,-843.97 784.598,-853.086 795.356,-859.399C806.113,-865.712 818.285,-868.869 831.871,-868.869C845.457,-868.869 857.603,-865.712 868.31,-859.399C879.068,-853.086 887.553,-843.97 893.765,-832.051C900.027,-820.182 903.159,-805.889 903.159,-789.172ZM874.901,-789.172C874.901,-806.849 870.886,-820.334 862.856,-829.626C854.876,-838.97 844.548,-843.642 831.871,-843.642C819.245,-843.642 808.917,-838.97 800.886,-829.626C792.856,-820.334 788.841,-806.849 788.841,-789.172C788.841,-771.546 792.856,-758.061 800.886,-748.718C808.917,-739.374 819.245,-734.702 831.871,-734.702C844.548,-734.702 854.876,-739.374 862.856,-748.718C870.886,-758.061 874.901,-771.546 874.901,-789.172ZM929.825,-711.596L929.825,-866.748L988.007,-866.748C999.926,-866.748 1009.93,-864.525 1018.01,-860.081C1026.14,-855.637 1032.28,-849.551 1036.42,-841.823C1040.61,-834.096 1042.7,-825.283 1042.7,-815.384C1042.7,-805.435 1040.61,-796.596 1036.42,-788.869C1032.22,-781.142 1026.04,-775.056 1017.86,-770.611C1009.67,-766.217 999.598,-764.021 987.628,-764.021L957.931,-764.021L957.931,-711.596L929.825,-711.596ZM957.931,-787.127L983.84,-787.127C994.295,-787.127 1001.95,-789.778 1006.8,-795.081C1011.64,-800.384 1014.07,-807.152 1014.07,-815.384C1014.07,-823.667 1011.64,-830.384 1006.8,-835.536C1001.95,-840.687 994.244,-843.263 983.689,-843.263L957.931,-843.263L957.931,-787.127ZM1151.41,-824.096C1150.71,-830.712 1147.75,-835.864 1142.55,-839.551C1137.35,-843.238 1130.56,-845.081 1122.17,-845.081C1113.38,-845.081 1106.52,-843.162 1101.57,-839.323C1096.62,-835.536 1094.12,-830.712 1094.07,-824.854C1094.02,-820.561 1095.3,-817 1097.93,-814.172C1100.56,-811.394 1103.89,-809.172 1107.93,-807.505C1112.02,-805.839 1116.19,-804.5 1120.43,-803.49L1134.98,-799.854C1142.75,-798.036 1150.1,-795.334 1157.02,-791.748C1163.99,-788.212 1169.65,-783.465 1173.99,-777.505C1178.38,-771.596 1180.58,-764.147 1180.58,-755.157C1180.53,-741.47 1175.36,-730.384 1165.05,-721.899C1154.75,-713.465 1140.3,-709.248 1121.72,-709.248C1103.64,-709.248 1089.22,-713.415 1078.46,-721.748C1067.7,-730.132 1062.05,-742.026 1061.49,-757.43L1089.14,-757.43C1089.7,-749.298 1093.03,-743.238 1099.14,-739.248C1105.25,-735.258 1112.7,-733.263 1121.49,-733.263C1130.68,-733.263 1138.13,-735.283 1143.84,-739.324C1149.55,-743.415 1152.43,-748.768 1152.48,-755.384C1152.42,-761.394 1149.85,-765.94 1144.75,-769.021C1139.7,-772.152 1132.98,-774.778 1124.6,-776.899L1106.95,-781.445C1094.17,-784.728 1084.07,-789.702 1076.64,-796.369C1069.27,-803.086 1065.58,-812 1065.58,-823.111C1065.58,-832.253 1068.06,-840.258 1073.01,-847.126C1077.96,-853.995 1084.72,-859.323 1093.31,-863.111C1101.95,-866.95 1111.69,-868.869 1122.55,-868.869C1133.56,-868.869 1143.23,-866.95 1151.57,-863.111C1159.9,-859.323 1166.41,-854.046 1171.11,-847.278C1175.86,-840.561 1178.31,-832.834 1178.46,-824.096L1151.41,-824.096Z" style="fill:rgb(37,176,255);fill-rule:nonzero;"/>
        </g>
        <g id="text56-1" transform="matrix(0.968343,0,0,1.03269,0,0)">
            <path d="M1350.62,-820.903L1345.47,-820.903C1344.51,-826.054 1342.65,-831.307 1339.87,-836.66C1337.09,-842.014 1333.4,-846.963 1328.81,-851.509C1324.21,-856.054 1318.78,-859.716 1312.52,-862.494C1306.26,-865.271 1299.16,-866.66 1291.23,-866.66C1280.62,-866.66 1270.8,-863.756 1261.76,-857.948C1252.77,-852.191 1245.53,-843.731 1240.02,-832.569C1234.57,-821.458 1231.84,-807.873 1231.84,-791.812C1231.84,-775.549 1234.57,-761.863 1240.02,-750.751C1245.52,-739.64 1252.77,-731.231 1261.76,-725.524C1270.8,-719.817 1280.62,-716.964 1291.23,-716.964C1299.16,-716.964 1306.26,-718.327 1312.52,-721.055C1318.78,-723.832 1324.21,-727.469 1328.81,-731.964C1333.4,-736.509 1337.09,-741.459 1339.87,-746.812C1342.65,-752.216 1344.51,-757.519 1345.47,-762.721L1350.62,-762.721C1349.67,-757.267 1347.75,-751.585 1344.87,-745.676C1341.99,-739.817 1338.1,-734.337 1333.2,-729.236C1328.3,-724.135 1322.37,-719.994 1315.4,-716.812C1308.43,-713.681 1300.37,-712.115 1291.23,-712.115C1278.5,-712.115 1267.32,-715.448 1257.67,-722.115C1248.03,-728.782 1240.5,-738.1 1235.1,-750.07C1229.69,-762.039 1226.99,-775.953 1226.99,-791.812C1226.99,-807.671 1229.69,-821.585 1235.1,-833.554C1240.5,-845.524 1248.03,-854.842 1257.67,-861.509C1267.32,-868.175 1278.5,-871.509 1291.23,-871.509C1300.37,-871.509 1308.43,-869.943 1315.4,-866.812C1322.37,-863.681 1328.3,-859.564 1333.2,-854.463C1338.1,-849.413 1341.99,-843.933 1344.87,-838.024C1347.75,-832.165 1349.67,-826.458 1350.62,-820.903ZM1509.72,-791.812C1509.72,-776.004 1507.01,-762.115 1501.61,-750.145C1496.21,-738.176 1488.68,-728.832 1479.03,-722.115C1469.39,-715.448 1458.2,-712.115 1445.47,-712.115C1432.7,-712.115 1421.48,-715.474 1411.84,-722.191C1402.19,-728.908 1394.67,-738.251 1389.26,-750.221C1383.91,-762.191 1381.23,-776.054 1381.23,-791.812C1381.23,-807.62 1383.93,-821.484 1389.34,-833.403C1394.74,-845.372 1402.27,-854.716 1411.91,-861.433C1421.56,-868.15 1432.75,-871.509 1445.47,-871.509C1458.2,-871.509 1469.39,-868.15 1479.03,-861.433C1488.68,-854.766 1496.21,-845.448 1501.61,-833.479C1507.01,-821.509 1509.72,-807.62 1509.72,-791.812ZM1504.87,-791.812C1504.87,-806.66 1502.37,-819.691 1497.37,-830.903C1492.37,-842.165 1485.4,-850.928 1476.46,-857.191C1467.57,-863.504 1457.24,-866.66 1445.47,-866.66C1433.76,-866.66 1423.43,-863.529 1414.49,-857.266C1405.6,-851.054 1398.63,-842.317 1393.58,-831.054C1388.58,-819.842 1386.08,-806.761 1386.08,-791.812C1386.08,-777.065 1388.56,-764.059 1393.5,-752.797C1398.45,-741.585 1405.37,-732.797 1414.26,-726.433C1423.2,-720.12 1433.61,-716.964 1445.47,-716.964C1457.24,-716.964 1467.6,-720.095 1476.53,-726.358C1485.47,-732.671 1492.44,-741.433 1497.44,-752.645C1502.44,-763.908 1504.92,-776.963 1504.87,-791.812ZM1530.02,-714.236L1524.87,-714.236L1580.32,-869.388L1586.99,-869.388L1642.44,-714.236L1637.29,-714.236L1618.5,-766.66L1548.81,-766.66L1530.02,-714.236ZM1550.47,-771.509L1616.84,-771.509L1583.96,-863.327L1583.35,-863.327L1550.47,-771.509ZM1781.23,-820.903L1776.08,-820.903C1775.12,-826.054 1773.25,-831.307 1770.47,-836.66C1767.69,-842.014 1764.01,-846.963 1759.41,-851.509C1754.82,-856.054 1749.39,-859.716 1743.12,-862.494C1736.86,-865.271 1729.77,-866.66 1721.84,-866.66C1711.23,-866.66 1701.41,-863.756 1692.37,-857.948C1683.38,-852.191 1676.13,-843.731 1670.62,-832.569C1665.17,-821.458 1662.44,-807.873 1662.44,-791.812C1662.44,-775.549 1665.17,-761.863 1670.62,-750.751C1676.13,-739.64 1683.38,-731.231 1692.37,-725.524C1701.41,-719.817 1711.23,-716.964 1721.84,-716.964C1729.77,-716.964 1736.86,-718.327 1743.12,-721.055C1749.39,-723.832 1754.82,-727.469 1759.41,-731.964C1764.01,-736.509 1767.69,-741.459 1770.47,-746.812C1773.25,-752.216 1775.12,-757.519 1776.08,-762.721L1781.23,-762.721C1780.27,-757.267 1778.35,-751.585 1775.47,-745.676C1772.59,-739.817 1768.7,-734.337 1763.81,-729.236C1758.91,-724.135 1752.97,-719.994 1746,-716.812C1739.03,-713.681 1730.98,-712.115 1721.84,-712.115C1709.11,-712.115 1697.92,-715.448 1688.28,-722.115C1678.63,-728.782 1671.1,-738.1 1665.7,-750.07C1660.3,-762.039 1657.59,-775.953 1657.59,-791.812C1657.59,-807.671 1660.3,-821.585 1665.7,-833.554C1671.1,-845.524 1678.63,-854.842 1688.28,-861.509C1697.92,-868.175 1709.11,-871.509 1721.84,-871.509C1730.98,-871.509 1739.03,-869.943 1746,-866.812C1752.97,-863.681 1758.91,-859.564 1763.81,-854.463C1768.7,-849.413 1772.59,-843.933 1775.47,-838.024C1778.35,-832.165 1780.27,-826.458 1781.23,-820.903ZM1820.62,-714.236L1820.62,-869.388L1825.47,-869.388L1825.47,-794.236L1924.26,-794.236L1924.26,-869.388L1929.11,-869.388L1929.11,-714.236L1924.26,-714.236L1924.26,-789.388L1825.47,-789.388L1825.47,-714.236L1820.62,-714.236ZM1977.59,-714.236L1977.59,-869.388L2060.32,-869.388L2060.32,-864.539L1982.44,-864.539L1982.44,-794.236L2055.77,-794.236L2055.77,-789.388L1982.44,-789.388L1982.44,-719.085L2062.44,-719.085L2062.44,-714.236L1977.59,-714.236ZM2185.17,-830.6C2184.41,-841.206 2180.35,-849.918 2172.97,-856.736C2165.65,-863.554 2155.98,-866.963 2143.96,-866.963C2136.08,-866.963 2129.03,-865.448 2122.82,-862.418C2116.61,-859.388 2111.71,-855.221 2108.12,-849.918C2104.54,-844.665 2102.74,-838.63 2102.74,-831.812C2102.74,-816.256 2113.65,-805.145 2135.47,-798.479L2153.05,-793.024C2166.48,-788.883 2176.36,-783.655 2182.67,-777.342C2188.98,-771.08 2192.14,-763.176 2192.14,-753.63C2192.14,-745.549 2190.07,-738.352 2185.93,-732.039C2181.78,-725.726 2176,-720.777 2168.58,-717.191C2161.15,-713.605 2152.54,-711.812 2142.74,-711.812C2133.3,-711.812 2125.04,-713.453 2117.97,-716.736C2110.9,-720.07 2105.29,-724.64 2101.15,-730.448C2097.06,-736.307 2094.76,-743.024 2094.26,-750.6L2099.11,-750.6C2099.87,-740.549 2104.13,-732.368 2111.91,-726.054C2119.69,-719.792 2129.97,-716.661 2142.74,-716.661C2151.63,-716.661 2159.41,-718.201 2166.08,-721.282C2172.79,-724.413 2178,-728.757 2181.68,-734.312C2185.42,-739.868 2187.29,-746.307 2187.29,-753.63C2187.29,-761.964 2184.51,-768.832 2178.96,-774.236C2173.4,-779.64 2164.36,-784.287 2151.83,-788.176L2134.26,-793.63C2110.02,-801.256 2097.89,-813.984 2097.89,-831.812C2097.89,-839.438 2099.89,-846.256 2103.88,-852.266C2107.87,-858.327 2113.32,-863.1 2120.24,-866.585C2127.21,-870.069 2135.12,-871.812 2143.96,-871.812C2152.85,-871.812 2160.65,-870.044 2167.37,-866.509C2174.08,-862.973 2179.41,-858.1 2183.35,-851.888C2187.29,-845.676 2189.51,-838.58 2190.02,-830.6L2185.17,-830.6Z" style="fill:rgb(37,176,255);fill-rule:nonzero;stroke:rgb(37,176,255);stroke-width:2.19px;"/>
        </g>
        <g id="text3">
        </g>
    </g>
</svg>
