<?xml version="1.0" encoding="UTF-8" standalone="no"?>
<!DOCTYPE svg PUBLIC "-//W3C//DTD SVG 1.1//EN" "http://www.w3.org/Graphics/SVG/1.1/DTD/svg11.dtd">
<svg width="100%" height="100%" viewBox="0 0 969 502" version="1.1" xmlns="http://www.w3.org/2000/svg" xmlns:xlink="http://www.w3.org/1999/xlink" xml:space="preserve" xmlns:serif="http://www.serif.com/" style="fill-rule:evenodd;clip-rule:evenodd;stroke-linejoin:round;stroke-miterlimit:2;">
    <g transform="matrix(1,0,0,1,-18.1895,-251.09)">
        <g transform="matrix(2.16535,0.235981,-0.235826,2.16395,281.587,2223.38)">
            <g id="g2">
                <g>
                    <g transform="matrix(0.961063,0,0,0.957262,-549.529,-1128.2)">
                        <path d="M534.169,282.205C512.793,266.139 486.94,260.118 462.315,263.385C437.719,266.648 414.349,279.201 397.903,300.285C381.473,321.347 374.997,347.075 377.822,371.753C380.646,396.424 392.776,420.026 413.558,436.846C434.331,453.658 459.939,460.599 484.656,458.219C506.594,456.107 527.833,446.625 544.356,430.162L528.183,412.978C520.354,420.586 511.033,426.27 500.959,429.772C487.256,434.536 472.179,435.287 457.578,431.381C442.974,427.476 430.282,419.3 420.789,408.335C411.296,397.372 405.02,383.643 403.245,368.634C401.469,353.621 404.364,338.814 411.029,325.953C417.711,313.06 428.147,302.141 441.432,294.939C454.712,287.739 469.546,284.954 483.982,286.389C498.384,287.82 512.372,293.48 523.999,303.173L524.585,303.682L625.043,401.323L611.117,415.639L510.825,318.16C502.428,311.302 492.377,307.29 482.026,306.261C471.533,305.218 460.711,307.265 450.978,312.542C441.249,317.815 433.634,325.759 428.79,335.107C423.928,344.487 421.818,355.304 423.117,366.288C424.417,377.276 428.986,387.297 435.889,395.27C442.793,403.245 452.056,409.199 462.741,412.057C473.43,414.915 484.427,414.379 494.387,410.918C504.376,407.445 513.341,401.051 519.93,392.208L527.063,382.635L535.226,391.308L565.269,423.229L571.36,429.701L565.66,436.491C544.97,461.136 516.296,475.225 486.534,478.091C456.805,480.955 425.987,472.59 400.962,452.337C375.945,432.089 361.345,403.695 357.949,374.023C354.554,344.359 362.368,313.396 382.177,288.002C401.968,262.629 430.108,247.522 459.733,243.591C489.33,239.664 520.417,246.913 546.14,266.245L534.169,282.205Z" style="fill:rgb(37,176,255);"/>
                    </g>
                    <g transform="matrix(0.961063,1.33374e-17,0,0.957262,-574.727,-1156.36)">
                        <path d="M667.03,438.994C688.406,455.06 714.259,461.082 738.884,457.814C763.48,454.55 786.85,441.999 803.296,420.915C819.726,399.852 826.202,374.124 823.377,349.445C820.553,324.775 808.423,301.173 787.641,284.353C766.868,267.541 741.26,260.6 716.543,262.98C694.605,265.092 673.367,274.575 656.843,291.037L673.016,308.221C680.845,300.613 690.167,294.929 700.241,291.427C713.943,286.664 729.021,285.913 743.622,289.817C758.226,293.723 770.918,301.899 780.41,312.863C789.903,323.828 796.179,337.556 797.955,352.565C799.73,367.579 796.835,382.385 790.169,395.246C783.488,408.139 773.052,419.058 759.767,426.26C746.487,433.46 731.653,436.246 717.217,434.81C702.815,433.378 688.827,427.719 677.201,418.026L676.614,417.517L576.156,319.877L590.083,305.56L690.375,403.039C698.771,409.897 708.822,413.91 719.173,414.938C729.666,415.981 740.488,413.934 750.222,408.658C759.951,403.383 767.565,395.44 772.41,386.092C777.271,376.712 779.381,365.896 778.082,354.912C776.783,343.923 772.213,333.902 765.31,325.929C758.406,317.954 749.143,312 738.459,309.142C727.769,306.284 716.772,306.82 706.812,310.282C696.824,313.754 687.859,320.147 681.269,328.992L674.136,338.564L665.973,329.891L635.93,297.97L629.839,291.498L635.54,284.709C656.23,260.063 684.903,245.974 714.666,243.107C744.394,240.245 775.212,248.608 800.238,268.862C825.253,289.109 839.854,317.504 843.251,347.176C846.645,376.84 838.832,407.804 819.022,433.198C799.231,458.57 771.091,473.677 741.465,477.608C711.869,481.535 680.782,474.287 655.059,454.955L667.03,438.994Z" style="fill:rgb(24,231,207);"/>
                    </g>
                </g>
            </g>
        </g>
    </g>
</svg>
